<?xml version="1.0" encoding="UTF-8" standalone="no"?>
<!DOCTYPE svg PUBLIC "-//W3C//DTD SVG 1.1//EN"
 "http://www.w3.org/Graphics/SVG/1.1/DTD/svg11.dtd">
<!-- Generated by graphviz version 2.34.0 (20140110.0949)
 -->
<!-- Title: GradleSetup Pages: 1 -->
<svg width="1656pt" height="642pt"
 viewBox="0.00 0.00 1656.00 642.00" xmlns="http://www.w3.org/2000/svg" xmlns:xlink="http://www.w3.org/1999/xlink">
<g id="graph0" class="graph" transform="scale(1 1) rotate(0) translate(4 638)">
<title>GradleSetup</title>
<polygon fill="white" stroke="white" points="-4,4 -4,-638 1652,-638 1652,4 -4,4"/>
<text text-anchor="middle" x="61" y="-618.8" font-family="Times,serif" font-size="14.00">Gradle Build Setup</text>
<g id="clust1" class="cluster"><title>cluster1</title>
<polygon fill="lightgrey" stroke="black" points="452,-8 452,-603 1141,-603 1141,-8 452,-8"/>
<text text-anchor="middle" x="492" y="-15.8" font-family="Times,serif" font-size="14.00">Java Plugin</text>
</g>
<g id="clust2" class="cluster"><title>cluster11</title>
</g>
<g id="clust3" class="cluster"><title>cluster12</title>
</g>
<g id="clust4" class="cluster"><title>cluster13</title>
</g>
<g id="clust5" class="cluster"><title>cluster2</title>
<polygon fill="lightgrey" stroke="black" points="8,-155 8,-512 444,-512 444,-155 8,-155"/>
<text text-anchor="middle" x="51" y="-162.8" font-family="Times,serif" font-size="14.00">Bnd Projects</text>
</g>
<g id="clust6" class="cluster"><title>cluster21</title>
</g>
<g id="clust7" class="cluster"><title>cluster22</title>
</g>
<g id="clust8" class="cluster"><title>cluster23</title>
</g>
<g id="clust9" class="cluster"><title>cluster100</title>
<polygon fill="lightgrey" stroke="black" points="95,-429 95,-504 221,-504 221,-429 95,-429"/>
<text text-anchor="middle" x="157.5" y="-488.8" font-family="Times,serif" font-size="14.00">Class Cycle Checks</text>
</g>
<g id="clust10" class="cluster"><title>cluster3</title>
<polygon fill="lightgrey" stroke="black" points="1149,-520 1149,-595 1234,-595 1234,-520 1149,-520"/>
<text text-anchor="middle" x="1191.5" y="-527.8" font-family="Times,serif" font-size="14.00">Root Project</text>
</g>
<g id="clust11" class="cluster"><title>cluster4</title>
<polygon fill="lightgrey" stroke="black" points="1149,-155 1149,-318 1387,-318 1387,-155 1149,-155"/>
<text text-anchor="middle" x="1193" y="-162.8" font-family="Times,serif" font-size="14.00">Java Projects</text>
</g>
<g id="clust12" class="cluster"><title>cluster41</title>
</g>
<g id="clust13" class="cluster"><title>cluster42</title>
</g>
<g id="clust14" class="cluster"><title>cluster5</title>
<polygon fill="lightgrey" stroke="black" points="1242,-326 1242,-603 1640,-603 1640,-326 1242,-326"/>
<text text-anchor="middle" x="1282.5" y="-333.8" font-family="Times,serif" font-size="14.00">All Projects</text>
</g>
<g id="clust15" class="cluster"><title>cluster21</title>
</g>
<g id="clust16" class="cluster"><title>cluster22</title>
</g>
<!-- compileJava -->
<g id="node1" class="node"><title>compileJava</title>
<polygon fill="lightcyan" stroke="black" points="617.25,-587 532.75,-587 532.75,-551 617.25,-551 617.25,-587"/>
<text text-anchor="middle" x="575" y="-565.3" font-family="Times,serif" font-size="14.00">compileJava</text>
</g>
<!-- classes -->
<g id="node3" class="node"><title>classes</title>
<polygon fill="lightcyan" stroke="black" points="737,-473 683,-473 683,-437 737,-437 737,-473"/>
<text text-anchor="middle" x="710" y="-451.3" font-family="Times,serif" font-size="14.00">classes</text>
</g>
<!-- compileJava&#45;&gt;classes -->
<g id="edge1" class="edge"><title>compileJava&#45;&gt;classes</title>
<path fill="none" stroke="black" d="M592.521,-550.651C602.173,-541.315 614.498,-529.749 626,-520 642.639,-505.897 661.954,-491.08 677.865,-479.259"/>
<polygon fill="black" stroke="black" points="680.347,-481.777 686.315,-473.023 676.19,-476.144 680.347,-481.777"/>
</g>
<!-- processResources -->
<g id="node2" class="node"><title>processResources</title>
<polygon fill="lightcyan" stroke="black" points="748.25,-587 635.75,-587 635.75,-551 748.25,-551 748.25,-587"/>
<text text-anchor="middle" x="692" y="-565.3" font-family="Times,serif" font-size="14.00">processResources</text>
</g>
<!-- processResources&#45;&gt;classes -->
<g id="edge2" class="edge"><title>processResources&#45;&gt;classes</title>
<path fill="none" stroke="black" d="M694.734,-550.99C697.628,-532.981 702.239,-504.293 705.636,-483.152"/>
<polygon fill="black" stroke="black" points="709.109,-483.599 707.24,-473.17 702.198,-482.488 709.109,-483.599"/>
</g>
<!-- jar -->
<g id="node4" class="node"><title>jar</title>
<polygon fill="lightcyan" stroke="black" points="725,-401 671,-401 671,-365 725,-365 725,-401"/>
<text text-anchor="middle" x="698" y="-379.3" font-family="Times,serif" font-size="14.00">jar</text>
</g>
<!-- classes&#45;&gt;jar -->
<g id="edge6" class="edge"><title>classes&#45;&gt;jar</title>
<path fill="none" stroke="black" d="M707.034,-436.697C705.711,-428.983 704.122,-419.712 702.648,-411.112"/>
<polygon fill="black" stroke="black" points="706.072,-410.369 700.932,-401.104 699.172,-411.552 706.072,-410.369"/>
</g>
<!-- compileTestJava -->
<g id="node5" class="node"><title>compileTestJava</title>
<polygon fill="lightcyan" stroke="black" points="1035,-401 927,-401 927,-365 1035,-365 1035,-401"/>
<text text-anchor="middle" x="981" y="-379.3" font-family="Times,serif" font-size="14.00">compileTestJava</text>
</g>
<!-- classes&#45;&gt;compileTestJava -->
<g id="edge5" class="edge"><title>classes&#45;&gt;compileTestJava</title>
<path fill="none" stroke="black" d="M737.289,-449.576C777.392,-442.743 854.377,-428.362 918,-409 922.361,-407.673 926.844,-406.175 931.313,-404.589"/>
<polygon fill="black" stroke="black" points="932.851,-407.752 941.02,-401.006 930.427,-401.185 932.851,-407.752"/>
</g>
<!-- test -->
<g id="node8" class="node"><title>test</title>
<polygon fill="lightcyan" stroke="black" points="1008,-230 954,-230 954,-194 1008,-194 1008,-230"/>
<text text-anchor="middle" x="981" y="-208.3" font-family="Times,serif" font-size="14.00">test</text>
</g>
<!-- classes&#45;&gt;test -->
<g id="edge4" class="edge"><title>classes&#45;&gt;test</title>
<path fill="none" stroke="black" d="M737.12,-454.687C809.427,-455.881 1004.04,-454.7 1044,-409 1066.21,-383.597 1044.74,-287.298 1028,-258 1023.65,-250.386 1017.62,-243.252 1011.32,-237.007"/>
<polygon fill="black" stroke="black" points="1013.6,-234.35 1003.89,-230.109 1008.84,-239.479 1013.6,-234.35"/>
</g>
<!-- javadoc -->
<g id="node13" class="node"><title>javadoc</title>
<polygon fill="lightcyan" stroke="black" points="1132.25,-401 1073.75,-401 1073.75,-365 1132.25,-365 1132.25,-401"/>
<text text-anchor="middle" x="1103" y="-379.3" font-family="Times,serif" font-size="14.00">javadoc</text>
</g>
<!-- classes&#45;&gt;javadoc -->
<g id="edge3" class="edge"><title>classes&#45;&gt;javadoc</title>
<path fill="none" stroke="black" d="M737.052,-454.031C796.765,-453.348 943.693,-447.527 1059,-409 1061.91,-408.029 1064.84,-406.859 1067.73,-405.561"/>
<polygon fill="black" stroke="black" points="1069.38,-408.651 1076.78,-401.073 1066.27,-402.38 1069.38,-408.651"/>
</g>
<!-- bundle -->
<g id="node15" class="node"><title>bundle</title>
<polygon fill="cyan" stroke="black" points="102,-401 48,-401 48,-365 102,-365 102,-401"/>
<text text-anchor="middle" x="75" y="-379.3" font-family="Times,serif" font-size="14.00">bundle</text>
</g>
<!-- classes&#45;&gt;bundle -->
<g id="edge17" class="edge"><title>classes&#45;&gt;bundle</title>
<path fill="none" stroke="black" d="M682.715,-450.992C581.656,-439.852 228.517,-400.923 112.355,-388.118"/>
<polygon fill="black" stroke="black" points="112.507,-384.613 102.184,-386.997 111.74,-391.571 112.507,-384.613"/>
</g>
<!-- checkClassCycle -->
<g id="node21" class="node"><title>checkClassCycle</title>
<polygon fill="cyan" stroke="black" points="212.25,-473 103.75,-473 103.75,-437 212.25,-437 212.25,-473"/>
<text text-anchor="middle" x="158" y="-451.3" font-family="Times,serif" font-size="14.00">checkClassCycle</text>
</g>
<!-- classes&#45;&gt;checkClassCycle -->
<g id="edge15" class="edge"><title>classes&#45;&gt;checkClassCycle</title>
<path fill="none" stroke="black" d="M682.79,-455C529.377,-455 375.964,-455 222.55,-455"/>
<polygon fill="black" stroke="black" points="222.445,-451.5 212.445,-455 222.445,-458.5 222.445,-451.5"/>
</g>
<!-- findbugsMain -->
<g id="node26" class="node"><title>findbugsMain</title>
<polygon fill="cyan" stroke="black" points="1258.25,-302 1165.75,-302 1165.75,-266 1258.25,-266 1258.25,-302"/>
<text text-anchor="middle" x="1212" y="-280.3" font-family="Times,serif" font-size="14.00">findbugsMain</text>
</g>
<!-- classes&#45;&gt;findbugsMain -->
<g id="edge27" class="edge"><title>classes&#45;&gt;findbugsMain</title>
<path fill="none" stroke="black" d="M737.006,-454.421C821.277,-455.248 1077.78,-453.936 1145,-409 1178.7,-386.473 1196.84,-341.178 1205.45,-312.013"/>
<polygon fill="black" stroke="black" points="1208.91,-312.641 1208.2,-302.07 1202.16,-310.775 1208.91,-312.641"/>
</g>
<!-- uploadArchives -->
<g id="node10" class="node"><title>uploadArchives</title>
<polygon fill="lightcyan" stroke="black" points="749,-302 647,-302 647,-266 749,-266 749,-302"/>
<text text-anchor="middle" x="698" y="-280.3" font-family="Times,serif" font-size="14.00">uploadArchives</text>
</g>
<!-- jar&#45;&gt;uploadArchives -->
<g id="edge9" class="edge"><title>jar&#45;&gt;uploadArchives</title>
<path fill="none" stroke="black" d="M698,-364.658C698,-350.175 698,-329.263 698,-312.499"/>
<polygon fill="black" stroke="black" points="701.5,-312.191 698,-302.192 694.5,-312.192 701.5,-312.191"/>
</g>
<!-- assemble -->
<g id="node11" class="node"><title>assemble</title>
<polygon fill="lightcyan" stroke="black" points="628.25,-302 561.75,-302 561.75,-266 628.25,-266 628.25,-302"/>
<text text-anchor="middle" x="595" y="-280.3" font-family="Times,serif" font-size="14.00">assemble</text>
</g>
<!-- jar&#45;&gt;assemble -->
<g id="edge10" class="edge"><title>jar&#45;&gt;assemble</title>
<path fill="none" stroke="black" d="M679.586,-364.658C663.181,-349.209 639.01,-326.446 620.702,-309.205"/>
<polygon fill="black" stroke="black" points="622.934,-306.499 613.255,-302.192 618.135,-311.595 622.934,-306.499"/>
</g>
<!-- testClasses -->
<g id="node7" class="node"><title>testClasses</title>
<polygon fill="lightcyan" stroke="black" points="1019,-302 943,-302 943,-266 1019,-266 1019,-302"/>
<text text-anchor="middle" x="981" y="-280.3" font-family="Times,serif" font-size="14.00">testClasses</text>
</g>
<!-- compileTestJava&#45;&gt;testClasses -->
<g id="edge7" class="edge"><title>compileTestJava&#45;&gt;testClasses</title>
<path fill="none" stroke="black" d="M981,-364.658C981,-350.175 981,-329.263 981,-312.499"/>
<polygon fill="black" stroke="black" points="984.5,-312.191 981,-302.192 977.5,-312.192 984.5,-312.191"/>
</g>
<!-- processTestResources -->
<g id="node6" class="node"><title>processTestResources</title>
<polygon fill="lightcyan" stroke="black" points="909,-401 773,-401 773,-365 909,-365 909,-401"/>
<text text-anchor="middle" x="841" y="-379.3" font-family="Times,serif" font-size="14.00">processTestResources</text>
</g>
<!-- processTestResources&#45;&gt;testClasses -->
<g id="edge8" class="edge"><title>processTestResources&#45;&gt;testClasses</title>
<path fill="none" stroke="black" d="M864.026,-364.775C879.211,-353.534 899.619,-338.653 918,-326 926.879,-319.888 936.587,-313.452 945.665,-307.537"/>
<polygon fill="black" stroke="black" points="947.639,-310.428 954.128,-302.053 943.832,-304.554 947.639,-310.428"/>
</g>
<!-- testClasses&#45;&gt;test -->
<g id="edge11" class="edge"><title>testClasses&#45;&gt;test</title>
<path fill="none" stroke="black" d="M981,-265.697C981,-257.983 981,-248.712 981,-240.112"/>
<polygon fill="black" stroke="black" points="984.5,-240.104 981,-230.104 977.5,-240.104 984.5,-240.104"/>
</g>
<!-- findbugsTest -->
<g id="node24" class="node"><title>findbugsTest</title>
<polygon fill="cyan" stroke="black" points="1370.25,-302 1283.75,-302 1283.75,-266 1370.25,-266 1370.25,-302"/>
<text text-anchor="middle" x="1327" y="-280.3" font-family="Times,serif" font-size="14.00">findbugsTest</text>
</g>
<!-- testClasses&#45;&gt;findbugsTest -->
<g id="edge28" class="edge"><title>testClasses&#45;&gt;findbugsTest</title>
<path fill="none" stroke="black" d="M1019.12,-294.407C1055.5,-303.764 1112.02,-316.81 1162,-322 1184.1,-324.295 1240.26,-326.613 1262,-322 1273.87,-319.481 1285.67,-313.794 1295.9,-307.567"/>
<polygon fill="black" stroke="black" points="1297.97,-310.401 1304.45,-302.022 1294.15,-304.529 1297.97,-310.401"/>
</g>
<!-- check -->
<g id="node9" class="node"><title>check</title>
<polygon fill="lightcyan" stroke="black" points="1008,-147 954,-147 954,-111 1008,-111 1008,-147"/>
<text text-anchor="middle" x="981" y="-125.3" font-family="Times,serif" font-size="14.00">check</text>
</g>
<!-- test&#45;&gt;check -->
<g id="edge13" class="edge"><title>test&#45;&gt;check</title>
<path fill="none" stroke="black" d="M981,-193.822C981,-183.19 981,-169.306 981,-157.204"/>
<polygon fill="black" stroke="black" points="984.5,-157.153 981,-147.153 977.5,-157.153 984.5,-157.153"/>
</g>
<!-- build -->
<g id="node12" class="node"><title>build</title>
<polygon fill="lightcyan" stroke="black" points="895,-75 841,-75 841,-39 895,-39 895,-75"/>
<text text-anchor="middle" x="868" y="-53.3" font-family="Times,serif" font-size="14.00">build</text>
</g>
<!-- check&#45;&gt;build -->
<g id="edge14" class="edge"><title>check&#45;&gt;build</title>
<path fill="none" stroke="black" d="M960.71,-110.799C957.216,-108.083 953.561,-105.386 950,-103 935.613,-93.3613 918.983,-83.9441 904.476,-76.2366"/>
<polygon fill="black" stroke="black" points="905.776,-72.9672 895.293,-71.4334 902.532,-79.1699 905.776,-72.9672"/>
</g>
<!-- assemble&#45;&gt;build -->
<g id="edge12" class="edge"><title>assemble&#45;&gt;build</title>
<path fill="none" stroke="black" d="M606.843,-265.86C631.726,-230.95 692.801,-150.866 761,-103 782.456,-87.9406 809.734,-76.5669 831.377,-69.0213"/>
<polygon fill="black" stroke="black" points="832.521,-72.3294 840.883,-65.8244 830.289,-65.6945 832.521,-72.3294"/>
</g>
<!-- cleanJava -->
<g id="node14" class="node"><title>cleanJava</title>
<polygon fill="lightcyan" stroke="black" points="514,-587 460,-587 460,-551 514,-551 514,-587"/>
<text text-anchor="middle" x="487" y="-565.3" font-family="Times,serif" font-size="14.00">clean</text>
</g>
<!-- bundle&#45;&gt;compileJava -->
<g id="edge18" class="edge"><title>bundle&#45;&gt;compileJava</title>
<path fill="none" stroke="red" d="M70.987,-401.23C65.6147,-429.198 60.0258,-484.148 91,-512 109.056,-528.236 505.703,-510.385 528,-520 539.431,-524.929 549.5,-534.092 557.356,-543.101"/>
<polygon fill="red" stroke="red" points="554.646,-545.316 563.669,-550.869 560.078,-540.901 554.646,-545.316"/>
</g>
<!-- bundle&#45;&gt;jar -->
<g id="edge19" class="edge"><title>bundle&#45;&gt;jar</title>
<path fill="none" stroke="black" stroke-dasharray="5,2" d="M102.074,-383C288.27,-383 474.466,-383 660.662,-383"/>
<polygon fill="black" stroke="black" points="660.939,-386.5 670.939,-383 660.939,-379.5 660.939,-386.5"/>
</g>
<!-- bundle&#45;&gt;test -->
<g id="edge21" class="edge"><title>bundle&#45;&gt;test</title>
<path fill="none" stroke="black" d="M102.333,-380.284C164.121,-375.75 318.627,-360.714 440,-318 492.163,-299.643 496.228,-274.526 549,-258 622.372,-235.022 852.975,-220.097 943.755,-214.976"/>
<polygon fill="black" stroke="black" points="944.071,-218.464 953.862,-214.414 943.683,-211.475 944.071,-218.464"/>
</g>
<!-- bundleTest -->
<g id="node16" class="node"><title>bundleTest</title>
<polygon fill="cyan" stroke="black" points="101.25,-302 24.75,-302 24.75,-266 101.25,-266 101.25,-302"/>
<text text-anchor="middle" x="63" y="-280.3" font-family="Times,serif" font-size="14.00">bundleTest</text>
</g>
<!-- bundle&#45;&gt;bundleTest -->
<g id="edge20" class="edge"><title>bundle&#45;&gt;bundleTest</title>
<path fill="none" stroke="black" d="M72.8546,-364.658C71.0629,-350.175 68.4758,-329.263 66.402,-312.499"/>
<polygon fill="black" stroke="black" points="69.8281,-311.686 65.1268,-302.192 62.8811,-312.546 69.8281,-311.686"/>
</g>
<!-- release -->
<g id="node17" class="node"><title>release</title>
<polygon fill="cyan" stroke="black" points="190,-302 136,-302 136,-266 190,-266 190,-302"/>
<text text-anchor="middle" x="163" y="-280.3" font-family="Times,serif" font-size="14.00">release</text>
</g>
<!-- bundle&#45;&gt;release -->
<g id="edge22" class="edge"><title>bundle&#45;&gt;release</title>
<path fill="none" stroke="black" d="M90.7326,-364.658C104.623,-349.347 125.031,-326.852 140.621,-309.668"/>
<polygon fill="black" stroke="black" points="143.277,-311.95 147.404,-302.192 138.092,-307.246 143.277,-311.95"/>
</g>
<!-- export -->
<g id="node20" class="node"><title>export</title>
<polygon fill="cyan" stroke="black" points="318,-302 264,-302 264,-266 318,-266 318,-302"/>
<text text-anchor="middle" x="291" y="-280.3" font-family="Times,serif" font-size="14.00">export</text>
</g>
<!-- bundle&#45;&gt;export -->
<g id="edge23" class="edge"><title>bundle&#45;&gt;export</title>
<path fill="none" stroke="black" d="M102.082,-375.435C137.968,-366.032 202.506,-346.642 252,-318 256.584,-315.347 261.152,-312.136 265.462,-308.772"/>
<polygon fill="black" stroke="black" points="267.901,-311.296 273.367,-302.219 263.435,-305.906 267.901,-311.296"/>
</g>
<!-- bundleTest&#45;&gt;check -->
<g id="edge24" class="edge"><title>bundleTest&#45;&gt;check</title>
<path fill="none" stroke="black" d="M64.1283,-265.703C67.0257,-237.117 77.3409,-180.634 114,-155 148.418,-130.933 781.451,-129.827 943.478,-129.94"/>
<polygon fill="black" stroke="black" points="943.884,-133.441 953.887,-129.95 943.891,-126.441 943.884,-133.441"/>
</g>
<!-- releaseNeeded -->
<g id="node18" class="node"><title>releaseNeeded</title>
<polygon fill="cyan" stroke="black" points="221.25,-230 126.75,-230 126.75,-194 221.25,-194 221.25,-230"/>
<text text-anchor="middle" x="174" y="-208.3" font-family="Times,serif" font-size="14.00">releaseNeeded</text>
</g>
<!-- release&#45;&gt;releaseNeeded -->
<g id="edge25" class="edge"><title>release&#45;&gt;releaseNeeded</title>
<path fill="none" stroke="black" d="M165.719,-265.697C166.931,-257.983 168.388,-248.712 169.739,-240.112"/>
<polygon fill="black" stroke="black" points="173.217,-240.526 171.312,-230.104 166.302,-239.44 173.217,-240.526"/>
</g>
<!-- releaseNeeded&#45;&gt;releaseNeeded -->
<g id="edge26" class="edge"><title>releaseNeeded&#45;&gt;releaseNeeded</title>
<path fill="none" stroke="red" d="M221.326,-225.101C231.571,-223.82 239,-219.453 239,-212 239,-207.225 235.951,-203.717 231.066,-201.476"/>
<polygon fill="red" stroke="red" points="231.889,-198.073 221.326,-198.899 230.098,-204.84 231.889,-198.073"/>
</g>
<!-- bndproperties -->
<g id="node19" class="node"><title>bndproperties</title>
<polygon fill="cyan" stroke="black" points="427.25,-302 336.75,-302 336.75,-266 427.25,-266 427.25,-302"/>
<text text-anchor="middle" x="382" y="-280.3" font-family="Times,serif" font-size="14.00">bndproperties</text>
</g>
<!-- checkClassCycle&#45;&gt;bundle -->
<g id="edge16" class="edge"><title>checkClassCycle&#45;&gt;bundle</title>
<path fill="none" stroke="black" d="M137.483,-436.697C127.131,-427.965 114.414,-417.24 103.161,-407.75"/>
<polygon fill="black" stroke="black" points="105.182,-404.876 95.2809,-401.104 100.669,-410.227 105.182,-404.876"/>
</g>
<!-- wrapper -->
<g id="node22" class="node"><title>wrapper</title>
<polygon fill="cyan" stroke="black" points="1221.25,-587 1160.75,-587 1160.75,-551 1221.25,-551 1221.25,-587"/>
<text text-anchor="middle" x="1191" y="-565.3" font-family="Times,serif" font-size="14.00">wrapper</text>
</g>
<!-- findbugstest -->
<g id="node23" class="node"><title>findbugstest</title>
<polygon fill="cyan" stroke="black" points="1367.25,-230 1284.75,-230 1284.75,-194 1367.25,-194 1367.25,-230"/>
<text text-anchor="middle" x="1326" y="-208.3" font-family="Times,serif" font-size="14.00">findbugstest</text>
</g>
<!-- findbugstest&#45;&gt;check -->
<g id="edge32" class="edge"><title>findbugstest&#45;&gt;check</title>
<path fill="none" stroke="green" d="M1314.43,-193.831C1304.57,-180.734 1289.12,-163.536 1271,-155 1227.17,-134.356 1086.31,-130.611 1018.36,-130.033"/>
<polygon fill="green" stroke="green" points="1018.13,-126.531 1008.1,-129.965 1018.08,-133.531 1018.13,-126.531"/>
</g>
<!-- findbugsTest&#45;&gt;findbugstest -->
<g id="edge30" class="edge"><title>findbugsTest&#45;&gt;findbugstest</title>
<path fill="none" stroke="black" d="M1326.75,-265.697C1326.64,-257.983 1326.51,-248.712 1326.39,-240.112"/>
<polygon fill="black" stroke="black" points="1329.89,-240.053 1326.24,-230.104 1322.89,-240.153 1329.89,-240.053"/>
</g>
<!-- findbugs -->
<g id="node25" class="node"><title>findbugs</title>
<polygon fill="cyan" stroke="black" points="1236,-230 1172,-230 1172,-194 1236,-194 1236,-230"/>
<text text-anchor="middle" x="1204" y="-208.3" font-family="Times,serif" font-size="14.00">findbugs</text>
</g>
<!-- findbugs&#45;&gt;check -->
<g id="edge31" class="edge"><title>findbugs&#45;&gt;check</title>
<path fill="none" stroke="green" d="M1171.57,-199.222C1130.67,-184.364 1060.51,-158.881 1017.69,-143.326"/>
<polygon fill="green" stroke="green" points="1018.8,-140.006 1008.2,-139.881 1016.41,-146.585 1018.8,-140.006"/>
</g>
<!-- findbugsMain&#45;&gt;findbugs -->
<g id="edge29" class="edge"><title>findbugsMain&#45;&gt;findbugs</title>
<path fill="none" stroke="black" d="M1210.02,-265.697C1209.14,-257.983 1208.08,-248.712 1207.1,-240.112"/>
<polygon fill="black" stroke="black" points="1210.57,-239.642 1205.95,-230.104 1203.61,-240.437 1210.57,-239.642"/>
</g>
<!-- indexOBR -->
<g id="node27" class="node"><title>indexOBR</title>
<polygon fill="cyan" stroke="black" points="1624,-587 1550,-587 1550,-551 1624,-551 1624,-587"/>
<text text-anchor="middle" x="1587" y="-565.3" font-family="Times,serif" font-size="14.00">indexOBR</text>
</g>
<!-- index -->
<g id="node29" class="node"><title>index</title>
<polygon fill="cyan" stroke="black" points="1571,-473 1517,-473 1517,-437 1571,-437 1571,-473"/>
<text text-anchor="middle" x="1544" y="-451.3" font-family="Times,serif" font-size="14.00">index</text>
</g>
<!-- indexOBR&#45;&gt;index -->
<g id="edge33" class="edge"><title>indexOBR&#45;&gt;index</title>
<path fill="none" stroke="black" d="M1580.47,-550.99C1573.49,-532.817 1562.34,-503.769 1554.2,-482.575"/>
<polygon fill="black" stroke="black" points="1557.44,-481.252 1550.59,-473.17 1550.91,-483.761 1557.44,-481.252"/>
</g>
<!-- indexR5 -->
<g id="node28" class="node"><title>indexR5</title>
<polygon fill="cyan" stroke="black" points="1532,-587 1470,-587 1470,-551 1532,-551 1532,-587"/>
<text text-anchor="middle" x="1501" y="-565.3" font-family="Times,serif" font-size="14.00">indexR5</text>
</g>
<!-- indexR5&#45;&gt;index -->
<g id="edge34" class="edge"><title>indexR5&#45;&gt;index</title>
<path fill="none" stroke="black" d="M1507.53,-550.99C1514.51,-532.817 1525.66,-503.769 1533.8,-482.575"/>
<polygon fill="black" stroke="black" points="1537.09,-483.761 1537.41,-473.17 1530.56,-481.252 1537.09,-483.761"/>
</g>
<!-- clean -->
<g id="node30" class="node"><title>clean</title>
<polygon fill="lightcyan" stroke="black" points="1384,-587 1330,-587 1330,-551 1384,-551 1384,-587"/>
<text text-anchor="middle" x="1357" y="-565.3" font-family="Times,serif" font-size="14.00">clean</text>
</g>
<!-- cleanNeeded -->
<g id="node31" class="node"><title>cleanNeeded</title>
<polygon fill="cyan" stroke="black" points="1344,-473 1258,-473 1258,-437 1344,-437 1344,-473"/>
<text text-anchor="middle" x="1301" y="-451.3" font-family="Times,serif" font-size="14.00">cleanNeeded</text>
</g>
<!-- clean&#45;&gt;cleanNeeded -->
<g id="edge35" class="edge"><title>clean&#45;&gt;cleanNeeded</title>
<path fill="none" stroke="blue" d="M1348.49,-550.99C1339.37,-532.734 1324.75,-503.506 1314.14,-482.287"/>
<polygon fill="blue" stroke="blue" points="1317.19,-480.549 1309.59,-473.17 1310.93,-483.68 1317.19,-480.549"/>
</g>
<!-- distclean -->
<g id="node32" class="node"><title>distclean</title>
<polygon fill="cyan" stroke="black" points="1445.25,-473 1380.75,-473 1380.75,-437 1445.25,-437 1445.25,-473"/>
<text text-anchor="middle" x="1413" y="-451.3" font-family="Times,serif" font-size="14.00">distclean</text>
</g>
<!-- clean&#45;&gt;distclean -->
<g id="edge37" class="edge"><title>clean&#45;&gt;distclean</title>
<path fill="none" stroke="blue" d="M1365.51,-550.99C1374.63,-532.734 1389.25,-503.506 1399.86,-482.287"/>
<polygon fill="blue" stroke="blue" points="1403.07,-483.68 1404.41,-473.17 1396.81,-480.549 1403.07,-483.68"/>
</g>
<!-- cleanNeeded&#45;&gt;cleanNeeded -->
<g id="edge36" class="edge"><title>cleanNeeded&#45;&gt;cleanNeeded</title>
<path fill="none" stroke="red" d="M1344.04,-468.262C1354.35,-467.225 1362,-462.805 1362,-455 1362,-450 1358.86,-446.389 1353.89,-444.167"/>
<polygon fill="red" stroke="red" points="1354.58,-440.732 1344.04,-441.738 1352.91,-447.529 1354.58,-440.732"/>
</g>
<!-- distcleanNeeded -->
<g id="node33" class="node"><title>distcleanNeeded</title>
<polygon fill="cyan" stroke="black" points="1428,-401 1322,-401 1322,-365 1428,-365 1428,-401"/>
<text text-anchor="middle" x="1375" y="-379.3" font-family="Times,serif" font-size="14.00">distcleanNeeded</text>
</g>
<!-- distclean&#45;&gt;distcleanNeeded -->
<g id="edge38" class="edge"><title>distclean&#45;&gt;distcleanNeeded</title>
<path fill="none" stroke="black" d="M1403.61,-436.697C1399.24,-428.644 1393.94,-418.894 1389.1,-409.982"/>
<polygon fill="black" stroke="black" points="1392.13,-408.223 1384.29,-401.104 1385.98,-411.563 1392.13,-408.223"/>
</g>
<!-- distcleanNeeded&#45;&gt;distcleanNeeded -->
<g id="edge39" class="edge"><title>distcleanNeeded&#45;&gt;distcleanNeeded</title>
<path fill="none" stroke="red" d="M1428.26,-395.899C1438.63,-394.401 1446,-390.102 1446,-383 1446,-378.451 1442.98,-375.051 1438.08,-372.801"/>
<polygon fill="red" stroke="red" points="1438.83,-369.378 1428.26,-370.101 1436.97,-376.128 1438.83,-369.378"/>
</g>
</g>
</svg>
